<?xml version="1.0" standalone="no"?><svg xmlns="http://www.w3.org/2000/svg" viewBox="0 0 1440 320"><path fill="#0099ff" fill-opacity="1" d="M0,192L26.7,186.7C53.3,181,107,171,160,149.3C213.3,128,267,96,320,96C373.3,96,427,128,480,170.7C533.3,213,587,267,640,256C693.3,245,747,171,800,154.7C853.3,139,907,181,960,186.7C1013.3,192,1067,160,1120,170.7C1173.3,181,1227,235,1280,250.7C1333.3,267,1387,245,1413,234.7L1440,224L1440,0L1413.3,0C1386.7,0,1333,0,1280,0C1226.7,0,1173,0,1120,0C1066.7,0,1013,0,960,0C906.7,0,853,0,800,0C746.7,0,693,0,640,0C586.7,0,533,0,480,0C426.7,0,373,0,320,0C266.7,0,213,0,160,0C106.7,0,53,0,27,0L0,0Z"></path></svg>