<?xml version="1.0" standalone="no"?><svg xmlns="http://www.w3.org/2000/svg" viewBox="0 0 1440 320"><path fill="#0099ff" fill-opacity="1" d="M0,96L30,80C60,64,120,32,180,53.3C240,75,300,149,360,154.7C420,160,480,96,540,96C600,96,660,160,720,170.7C780,181,840,139,900,149.3C960,160,1020,224,1080,250.7C1140,277,1200,267,1260,250.7C1320,235,1380,213,1410,202.7L1440,192L1440,0L1410,0C1380,0,1320,0,1260,0C1200,0,1140,0,1080,0C1020,0,960,0,900,0C840,0,780,0,720,0C660,0,600,0,540,0C480,0,420,0,360,0C300,0,240,0,180,0C120,0,60,0,30,0L0,0Z"></path></svg>