<?xml version="1.0" standalone="no"?><svg xmlns="http://www.w3.org/2000/svg" viewBox="0 0 1440 320"><path fill="#0099ff" fill-opacity="1" d="M0,288L26.7,266.7C53.3,245,107,203,160,181.3C213.3,160,267,160,320,149.3C373.3,139,427,117,480,144C533.3,171,587,245,640,256C693.3,267,747,213,800,192C853.3,171,907,181,960,186.7C1013.3,192,1067,192,1120,160C1173.3,128,1227,64,1280,64C1333.3,64,1387,128,1413,160L1440,192L1440,320L1413.3,320C1386.7,320,1333,320,1280,320C1226.7,320,1173,320,1120,320C1066.7,320,1013,320,960,320C906.7,320,853,320,800,320C746.7,320,693,320,640,320C586.7,320,533,320,480,320C426.7,320,373,320,320,320C266.7,320,213,320,160,320C106.7,320,53,320,27,320L0,320Z"></path></svg>