<?xml version="1.0" standalone="no"?><svg xmlns="http://www.w3.org/2000/svg" viewBox="0 0 1440 320"><path fill="#0099ff" fill-opacity="1" d="M0,192L26.7,197.3C53.3,203,107,213,160,229.3C213.3,245,267,267,320,272C373.3,277,427,267,480,240C533.3,213,587,171,640,170.7C693.3,171,747,213,800,234.7C853.3,256,907,256,960,256C1013.3,256,1067,256,1120,218.7C1173.3,181,1227,107,1280,101.3C1333.3,96,1387,160,1413,192L1440,224L1440,320L1413.3,320C1386.7,320,1333,320,1280,320C1226.7,320,1173,320,1120,320C1066.7,320,1013,320,960,320C906.7,320,853,320,800,320C746.7,320,693,320,640,320C586.7,320,533,320,480,320C426.7,320,373,320,320,320C266.7,320,213,320,160,320C106.7,320,53,320,27,320L0,320Z"></path></svg>